name rise30.2954peak35.7071fall66.7804.mot
datacolumns 19
datarows 24
range 6.55497800000000 6.59331100000000
endheader
time	ground_force1_vx	ground_force1_vy	ground_force1_vz	ground_force1_px	ground_force1_py	ground_force1_pz	ground_force2_vx	ground_force2_vy	ground_force2_vz	ground_force2_px	ground_force2_py	ground_force2_pz	ground_torque1_x	ground_torque1_y	ground_torque1_z	ground_torque2_x	ground_torque2_y	ground_torque2_z	
6.55497800000000	-46.32452000000000	827.00394100000005	57.26627500000000	0.12350300000000	0.00000000000000	0.10921100000000	-1.22906400000000	3.84584400000000	0.64865300000000	0.00000000000000	0.00000000000000	0.00000000000000	0.00000000000000	25.35370900000000	0.00000000000000	0.00000000000000	0.13475400000000	0.00000000000000	
6.55664700000000	-46.71106300000000	825.58051599999999	57.01678400000000	0.12276600000000	0.00000000000000	0.10905700000000	-2.00396500000000	7.34841700000000	1.11798300000000	0.00000000000000	0.00000000000000	0.00000000000000	0.00000000000000	25.23161600000000	0.00000000000000	0.00000000000000	0.24920000000000	0.00000000000000	
6.55831400000000	-47.11002900000000	824.03786000000002	56.75083200000000	0.12204100000000	0.00000000000000	0.10890000000000	-2.88771600000000	11.57155400000000	1.66564200000000	0.00000000000000	0.00000000000000	0.00000000000000	0.00000000000000	25.10963700000000	0.00000000000000	0.00000000000000	0.38576000000000	0.00000000000000	
6.55997700000000	-47.52209600000000	822.37416499999995	56.46831900000000	0.12132800000000	0.00000000000000	0.10873800000000	-3.85550500000000	16.46786800000000	2.27999200000000	0.00000000000000	0.00000000000000	0.00000000000000	0.00000000000000	24.98799300000000	0.00000000000000	0.00000000000000	0.54241700000000	0.00000000000000	
6.56164600000000	-47.94789100000000	820.58762500000000	56.16916700000000	0.12062800000000	0.00000000000000	0.10857300000000	-4.87569500000000	21.95786500000000	2.94512900000000	0.00000000000000	0.00000000000000	0.00000000000000	0.00000000000000	24.86689300000000	0.00000000000000	0.00000000000000	0.71607600000000	0.00000000000000	
6.56331200000000	-48.38799300000000	818.67643299999997	55.85331800000000	0.11993900000000	0.00000000000000	0.10840400000000	-5.91187400000000	27.93588900000000	3.64194000000000	0.34353900000000	0.00000000000000	-0.08428800000000	0.00000000000000	24.74653300000000	0.00000000000000	0.00000000000000	1.65563000000000	0.00000000000000	
6.56497600000000	-48.84291900000000	816.63878000000000	55.52073600000000	0.11926100000000	0.00000000000000	0.10823100000000	-6.92548500000000	34.27891600000000	4.34951300000000	0.34948300000000	0.00000000000000	-0.08447400000000	0.00000000000000	24.62709100000000	0.00000000000000	0.00000000000000	2.03307100000000	0.00000000000000	
6.56665000000000	-49.31312700000000	814.47285599999998	55.17140800000000	0.11859500000000	0.00000000000000	0.10805500000000	-7.87870400000000	40.85704800000000	5.04674500000000	0.35491100000000	0.00000000000000	-0.08465200000000	0.00000000000000	24.50873400000000	0.00000000000000	0.00000000000000	2.42125300000000	0.00000000000000	
6.56831400000000	-49.79900700000000	812.17685200000005	54.80533800000000	0.11793900000000	0.00000000000000	0.10787500000000	-8.73717100000000	47.54420500000000	5.71390500000000	0.35988000000000	0.00000000000000	-0.08482200000000	0.00000000000000	24.39161100000000	0.00000000000000	0.00000000000000	2.81054200000000	0.00000000000000	
6.56997700000000	-50.30087500000000	809.74895500000002	54.42255300000000	0.11729400000000	0.00000000000000	0.10769100000000	-9.47222700000000	54.22760300000000	6.33395500000000	0.36443900000000	0.00000000000000	-0.08498900000000	0.00000000000000	24.27585200000000	0.00000000000000	0.00000000000000	3.19205400000000	0.00000000000000	
6.57164500000000	-50.81897500000000	807.18735400000003	54.02310100000000	0.11665800000000	0.00000000000000	0.10750400000000	-10.06243900000000	60.81500800000000	6.89350500000000	0.36862800000000	0.00000000000000	-0.08515400000000	0.00000000000000	24.16157300000000	0.00000000000000	0.00000000000000	3.55821800000000	0.00000000000000	
6.57331600000000	-51.35346800000000	804.49023699999998	53.60705000000000	0.11603100000000	0.00000000000000	0.10731400000000	-10.49433200000000	67.23928400000000	7.38332700000000	0.37248300000000	0.00000000000000	-0.08531700000000	0.00000000000000	24.04886900000000	0.00000000000000	0.00000000000000	3.90314900000000	0.00000000000000	
6.57497600000000	-51.90443100000000	801.65579900000000	53.17448700000000	0.11541300000000	0.00000000000000	0.10712000000000	-10.76235800000000	73.46016500000000	7.79846100000000	0.37603100000000	0.00000000000000	-0.08548200000000	0.00000000000000	23.93781700000000	0.00000000000000	0.00000000000000	4.22283300000000	0.00000000000000	
6.57664500000000	-52.47185100000000	798.68223499999999	52.72552300000000	0.11480200000000	0.00000000000000	0.10692400000000	-10.86823400000000	79.46352400000001	8.13794200000000	0.37929800000000	0.00000000000000	-0.08564700000000	0.00000000000000	23.82847700000000	0.00000000000000	0.00000000000000	4.51511300000000	0.00000000000000	
6.57831100000000	-53.05562600000000	795.56775200000004	52.26028500000000	0.11419800000000	0.00000000000000	0.10672400000000	-10.81979000000000	85.25861999999999	8.40424900000000	0.38230600000000	0.00000000000000	-0.08581500000000	0.00000000000000	23.72088600000000	0.00000000000000	0.00000000000000	4.77953700000000	0.00000000000000	
6.57998200000000	-53.65555600000000	792.31056500000000	51.77892200000000	0.11359900000000	0.00000000000000	0.10652100000000	-10.62951700000000	90.87388300000001	8.60256900000000	0.38507400000000	0.00000000000000	-0.08598600000000	0.00000000000000	23.61506400000000	0.00000000000000	0.00000000000000	5.01707300000000	0.00000000000000	
6.58164600000000	-54.27134100000000	788.90890300000001	51.28160300000000	0.11300600000000	0.00000000000000	0.10631600000000	-10.31299100000000	96.35186500000000	8.73996200000000	0.38761800000000	0.00000000000000	-0.08616000000000	0.00000000000000	23.51101100000000	0.00000000000000	0.00000000000000	5.22976600000000	0.00000000000000	
6.58331100000000	-54.90258200000000	785.36101399999995	50.76851700000000	0.11241600000000	0.00000000000000	0.10610800000000	-9.88730700000000	101.74389600000001	8.82451500000000	0.38995300000000	0.00000000000000	-0.08633700000000	0.00000000000000	23.40870400000000	0.00000000000000	0.00000000000000	5.42036000000000	0.00000000000000	
6.58497800000000	-55.54877300000000	781.66516500000000	50.23987200000000	0.11183000000000	0.00000000000000	0.10589700000000	-9.36967500000000	107.10494300000001	8.86456100000000	0.39209400000000	0.00000000000000	-0.08651800000000	0.00000000000000	23.30810400000000	0.00000000000000	0.00000000000000	5.59192300000000	0.00000000000000	
6.58664800000000	-56.20930400000000	777.81965300000002	49.69589700000000	0.11124500000000	0.00000000000000	0.10568400000000	-8.77623300000000	112.48904899999999	8.86801400000000	0.39405200000000	0.00000000000000	-0.08670300000000	0.00000000000000	23.20915000000000	0.00000000000000	0.00000000000000	5.74752300000000	0.00000000000000	
6.58831300000000	-56.88345300000000	773.82280300000002	49.13683900000000	0.11066200000000	0.00000000000000	0.10546900000000	-8.12115600000000	117.94560199999999	8.84184200000000	0.39583900000000	0.00000000000000	-0.08689100000000	0.00000000000000	23.11176200000000	0.00000000000000	0.00000000000000	5.88994500000000	0.00000000000000	
6.58997700000000	-57.57039200000000	769.67297799999994	48.56296700000000	0.11007900000000	0.00000000000000	0.10525200000000	-7.41607000000000	123.51658100000000	8.79170900000000	0.39746500000000	0.00000000000000	-0.08708400000000	0.00000000000000	23.01583900000000	0.00000000000000	0.00000000000000	6.02149400000000	0.00000000000000	
6.59164300000000	-58.26918000000000	765.36858099999995	47.97456900000000	0.10949500000000	0.00000000000000	0.10503200000000	-6.66975300000000	129.23481699999999	8.72177600000000	0.39893800000000	0.00000000000000	-0.08728100000000	0.00000000000000	22.92126200000000	0.00000000000000	0.00000000000000	6.14386300000000	0.00000000000000	
6.59331100000000	-58.97876600000000	760.90806499999997	47.37195000000000	0.10890900000000	0.00000000000000	0.10481200000000	-5.88811400000000	135.12321399999999	8.63464800000000	0.40026800000000	0.00000000000000	-0.08748200000000	0.00000000000000	22.82789300000000	0.00000000000000	0.00000000000000	6.25807600000000	0.00000000000000	
